<?xml version="1.0" encoding="utf-8" standalone="no"?>
<!DOCTYPE svg PUBLIC "-//W3C//DTD SVG 1.1//EN"
  "http://www.w3.org/Graphics/SVG/1.1/DTD/svg11.dtd">
<svg height="357.238125pt" version="1.1" viewBox="0 0 601.665625 357.238125" width="601.665625pt" xmlns="http://www.w3.org/2000/svg" xmlns:xlink="http://www.w3.org/1999/xlink">
 <metadata>
  <rdf:RDF xmlns:cc="http://creativecommons.org/ns#" xmlns:dc="http://purl.org/dc/elements/1.1/" xmlns:rdf="http://www.w3.org/1999/02/22-rdf-syntax-ns#">
   <cc:Work>
    <dc:type rdf:resource="http://purl.org/dc/dcmitype/StillImage"/>
    <dc:date>2021-07-27T18:20:39.523548</dc:date>
    <dc:format>image/svg+xml</dc:format>
    <dc:creator>
     <cc:Agent>
      <dc:title>Matplotlib v3.4.2, https://matplotlib.org/</dc:title>
     </cc:Agent>
    </dc:creator>
   </cc:Work>
  </rdf:RDF>
 </metadata>
 <defs>
  <style type="text/css">*{stroke-linecap:butt;stroke-linejoin:round;}</style>
 </defs>
 <g id="figure_1">
  <g id="patch_1">
   <path d="M 0 357.238125 
L 601.665625 357.238125 
L 601.665625 0 
L 0 0 
z
" style="fill:none;"/>
  </g>
  <g id="axes_1">
   <g id="patch_2">
    <path d="M 36.465625 333.36 
L 594.465625 333.36 
L 594.465625 7.2 
L 36.465625 7.2 
z
" style="fill:#ffffff;"/>
   </g>
   <g id="matplotlib.axis_1">
    <g id="xtick_1">
     <g id="line2d_1">
      <path clip-path="url(#p288f65b94c)" d="M 98.088928 333.36 
L 98.088928 7.2 
" style="fill:none;stroke:#b0b0b0;stroke-linecap:square;stroke-width:0.8;"/>
     </g>
     <g id="line2d_2">
      <defs>
       <path d="M 0 0 
L 0 3.5 
" id="m7bf59043fe" style="stroke:#000000;stroke-width:0.8;"/>
      </defs>
      <g>
       <use style="stroke:#000000;stroke-width:0.8;" x="98.088928" xlink:href="#m7bf59043fe" y="333.36"/>
      </g>
     </g>
     <g id="text_1">
      <!-- −6 -->
      <g transform="translate(90.717834 347.958438)scale(0.1 -0.1)">
       <defs>
        <path d="M 678 2272 
L 4684 2272 
L 4684 1741 
L 678 1741 
L 678 2272 
z
" id="DejaVuSans-2212" transform="scale(0.015625)"/>
        <path d="M 2113 2584 
Q 1688 2584 1439 2293 
Q 1191 2003 1191 1497 
Q 1191 994 1439 701 
Q 1688 409 2113 409 
Q 2538 409 2786 701 
Q 3034 994 3034 1497 
Q 3034 2003 2786 2293 
Q 2538 2584 2113 2584 
z
M 3366 4563 
L 3366 3988 
Q 3128 4100 2886 4159 
Q 2644 4219 2406 4219 
Q 1781 4219 1451 3797 
Q 1122 3375 1075 2522 
Q 1259 2794 1537 2939 
Q 1816 3084 2150 3084 
Q 2853 3084 3261 2657 
Q 3669 2231 3669 1497 
Q 3669 778 3244 343 
Q 2819 -91 2113 -91 
Q 1303 -91 875 529 
Q 447 1150 447 2328 
Q 447 3434 972 4092 
Q 1497 4750 2381 4750 
Q 2619 4750 2861 4703 
Q 3103 4656 3366 4563 
z
" id="DejaVuSans-36" transform="scale(0.015625)"/>
       </defs>
       <use xlink:href="#DejaVuSans-2212"/>
       <use x="83.789062" xlink:href="#DejaVuSans-36"/>
      </g>
     </g>
    </g>
    <g id="xtick_2">
     <g id="line2d_3">
      <path clip-path="url(#p288f65b94c)" d="M 170.608261 333.36 
L 170.608261 7.2 
" style="fill:none;stroke:#b0b0b0;stroke-linecap:square;stroke-width:0.8;"/>
     </g>
     <g id="line2d_4">
      <g>
       <use style="stroke:#000000;stroke-width:0.8;" x="170.608261" xlink:href="#m7bf59043fe" y="333.36"/>
      </g>
     </g>
     <g id="text_2">
      <!-- −4 -->
      <g transform="translate(163.237167 347.958438)scale(0.1 -0.1)">
       <defs>
        <path d="M 2419 4116 
L 825 1625 
L 2419 1625 
L 2419 4116 
z
M 2253 4666 
L 3047 4666 
L 3047 1625 
L 3713 1625 
L 3713 1100 
L 3047 1100 
L 3047 0 
L 2419 0 
L 2419 1100 
L 313 1100 
L 313 1709 
L 2253 4666 
z
" id="DejaVuSans-34" transform="scale(0.015625)"/>
       </defs>
       <use xlink:href="#DejaVuSans-2212"/>
       <use x="83.789062" xlink:href="#DejaVuSans-34"/>
      </g>
     </g>
    </g>
    <g id="xtick_3">
     <g id="line2d_5">
      <path clip-path="url(#p288f65b94c)" d="M 243.127594 333.36 
L 243.127594 7.2 
" style="fill:none;stroke:#b0b0b0;stroke-linecap:square;stroke-width:0.8;"/>
     </g>
     <g id="line2d_6">
      <g>
       <use style="stroke:#000000;stroke-width:0.8;" x="243.127594" xlink:href="#m7bf59043fe" y="333.36"/>
      </g>
     </g>
     <g id="text_3">
      <!-- −2 -->
      <g transform="translate(235.756501 347.958438)scale(0.1 -0.1)">
       <defs>
        <path d="M 1228 531 
L 3431 531 
L 3431 0 
L 469 0 
L 469 531 
Q 828 903 1448 1529 
Q 2069 2156 2228 2338 
Q 2531 2678 2651 2914 
Q 2772 3150 2772 3378 
Q 2772 3750 2511 3984 
Q 2250 4219 1831 4219 
Q 1534 4219 1204 4116 
Q 875 4013 500 3803 
L 500 4441 
Q 881 4594 1212 4672 
Q 1544 4750 1819 4750 
Q 2544 4750 2975 4387 
Q 3406 4025 3406 3419 
Q 3406 3131 3298 2873 
Q 3191 2616 2906 2266 
Q 2828 2175 2409 1742 
Q 1991 1309 1228 531 
z
" id="DejaVuSans-32" transform="scale(0.015625)"/>
       </defs>
       <use xlink:href="#DejaVuSans-2212"/>
       <use x="83.789062" xlink:href="#DejaVuSans-32"/>
      </g>
     </g>
    </g>
    <g id="xtick_4">
     <g id="line2d_7">
      <path clip-path="url(#p288f65b94c)" d="M 315.646927 333.36 
L 315.646927 7.2 
" style="fill:none;stroke:#b0b0b0;stroke-linecap:square;stroke-width:0.8;"/>
     </g>
     <g id="line2d_8">
      <g>
       <use style="stroke:#000000;stroke-width:0.8;" x="315.646927" xlink:href="#m7bf59043fe" y="333.36"/>
      </g>
     </g>
     <g id="text_4">
      <!-- 0 -->
      <g transform="translate(312.465677 347.958438)scale(0.1 -0.1)">
       <defs>
        <path d="M 2034 4250 
Q 1547 4250 1301 3770 
Q 1056 3291 1056 2328 
Q 1056 1369 1301 889 
Q 1547 409 2034 409 
Q 2525 409 2770 889 
Q 3016 1369 3016 2328 
Q 3016 3291 2770 3770 
Q 2525 4250 2034 4250 
z
M 2034 4750 
Q 2819 4750 3233 4129 
Q 3647 3509 3647 2328 
Q 3647 1150 3233 529 
Q 2819 -91 2034 -91 
Q 1250 -91 836 529 
Q 422 1150 422 2328 
Q 422 3509 836 4129 
Q 1250 4750 2034 4750 
z
" id="DejaVuSans-30" transform="scale(0.015625)"/>
       </defs>
       <use xlink:href="#DejaVuSans-30"/>
      </g>
     </g>
    </g>
    <g id="xtick_5">
     <g id="line2d_9">
      <path clip-path="url(#p288f65b94c)" d="M 388.166261 333.36 
L 388.166261 7.2 
" style="fill:none;stroke:#b0b0b0;stroke-linecap:square;stroke-width:0.8;"/>
     </g>
     <g id="line2d_10">
      <g>
       <use style="stroke:#000000;stroke-width:0.8;" x="388.166261" xlink:href="#m7bf59043fe" y="333.36"/>
      </g>
     </g>
     <g id="text_5">
      <!-- 2 -->
      <g transform="translate(384.985011 347.958438)scale(0.1 -0.1)">
       <use xlink:href="#DejaVuSans-32"/>
      </g>
     </g>
    </g>
    <g id="xtick_6">
     <g id="line2d_11">
      <path clip-path="url(#p288f65b94c)" d="M 460.685594 333.36 
L 460.685594 7.2 
" style="fill:none;stroke:#b0b0b0;stroke-linecap:square;stroke-width:0.8;"/>
     </g>
     <g id="line2d_12">
      <g>
       <use style="stroke:#000000;stroke-width:0.8;" x="460.685594" xlink:href="#m7bf59043fe" y="333.36"/>
      </g>
     </g>
     <g id="text_6">
      <!-- 4 -->
      <g transform="translate(457.504344 347.958438)scale(0.1 -0.1)">
       <use xlink:href="#DejaVuSans-34"/>
      </g>
     </g>
    </g>
    <g id="xtick_7">
     <g id="line2d_13">
      <path clip-path="url(#p288f65b94c)" d="M 533.204927 333.36 
L 533.204927 7.2 
" style="fill:none;stroke:#b0b0b0;stroke-linecap:square;stroke-width:0.8;"/>
     </g>
     <g id="line2d_14">
      <g>
       <use style="stroke:#000000;stroke-width:0.8;" x="533.204927" xlink:href="#m7bf59043fe" y="333.36"/>
      </g>
     </g>
     <g id="text_7">
      <!-- 6 -->
      <g transform="translate(530.023677 347.958438)scale(0.1 -0.1)">
       <use xlink:href="#DejaVuSans-36"/>
      </g>
     </g>
    </g>
   </g>
   <g id="matplotlib.axis_2">
    <g id="ytick_1">
     <g id="line2d_15">
      <path clip-path="url(#p288f65b94c)" d="M 36.465625 318.534545 
L 594.465625 318.534545 
" style="fill:none;stroke:#b0b0b0;stroke-linecap:square;stroke-width:0.8;"/>
     </g>
     <g id="line2d_16">
      <defs>
       <path d="M 0 0 
L -3.5 0 
" id="mc22cb1bb78" style="stroke:#000000;stroke-width:0.8;"/>
      </defs>
      <g>
       <use style="stroke:#000000;stroke-width:0.8;" x="36.465625" xlink:href="#mc22cb1bb78" y="318.534545"/>
      </g>
     </g>
     <g id="text_8">
      <!-- 0.00 -->
      <g transform="translate(7.2 322.333764)scale(0.1 -0.1)">
       <defs>
        <path d="M 684 794 
L 1344 794 
L 1344 0 
L 684 0 
L 684 794 
z
" id="DejaVuSans-2e" transform="scale(0.015625)"/>
       </defs>
       <use xlink:href="#DejaVuSans-30"/>
       <use x="63.623047" xlink:href="#DejaVuSans-2e"/>
       <use x="95.410156" xlink:href="#DejaVuSans-30"/>
       <use x="159.033203" xlink:href="#DejaVuSans-30"/>
      </g>
     </g>
    </g>
    <g id="ytick_2">
     <g id="line2d_17">
      <path clip-path="url(#p288f65b94c)" d="M 36.465625 281.372643 
L 594.465625 281.372643 
" style="fill:none;stroke:#b0b0b0;stroke-linecap:square;stroke-width:0.8;"/>
     </g>
     <g id="line2d_18">
      <g>
       <use style="stroke:#000000;stroke-width:0.8;" x="36.465625" xlink:href="#mc22cb1bb78" y="281.372643"/>
      </g>
     </g>
     <g id="text_9">
      <!-- 0.05 -->
      <g transform="translate(7.2 285.171862)scale(0.1 -0.1)">
       <defs>
        <path d="M 691 4666 
L 3169 4666 
L 3169 4134 
L 1269 4134 
L 1269 2991 
Q 1406 3038 1543 3061 
Q 1681 3084 1819 3084 
Q 2600 3084 3056 2656 
Q 3513 2228 3513 1497 
Q 3513 744 3044 326 
Q 2575 -91 1722 -91 
Q 1428 -91 1123 -41 
Q 819 9 494 109 
L 494 744 
Q 775 591 1075 516 
Q 1375 441 1709 441 
Q 2250 441 2565 725 
Q 2881 1009 2881 1497 
Q 2881 1984 2565 2268 
Q 2250 2553 1709 2553 
Q 1456 2553 1204 2497 
Q 953 2441 691 2322 
L 691 4666 
z
" id="DejaVuSans-35" transform="scale(0.015625)"/>
       </defs>
       <use xlink:href="#DejaVuSans-30"/>
       <use x="63.623047" xlink:href="#DejaVuSans-2e"/>
       <use x="95.410156" xlink:href="#DejaVuSans-30"/>
       <use x="159.033203" xlink:href="#DejaVuSans-35"/>
      </g>
     </g>
    </g>
    <g id="ytick_3">
     <g id="line2d_19">
      <path clip-path="url(#p288f65b94c)" d="M 36.465625 244.21074 
L 594.465625 244.21074 
" style="fill:none;stroke:#b0b0b0;stroke-linecap:square;stroke-width:0.8;"/>
     </g>
     <g id="line2d_20">
      <g>
       <use style="stroke:#000000;stroke-width:0.8;" x="36.465625" xlink:href="#mc22cb1bb78" y="244.21074"/>
      </g>
     </g>
     <g id="text_10">
      <!-- 0.10 -->
      <g transform="translate(7.2 248.009959)scale(0.1 -0.1)">
       <defs>
        <path d="M 794 531 
L 1825 531 
L 1825 4091 
L 703 3866 
L 703 4441 
L 1819 4666 
L 2450 4666 
L 2450 531 
L 3481 531 
L 3481 0 
L 794 0 
L 794 531 
z
" id="DejaVuSans-31" transform="scale(0.015625)"/>
       </defs>
       <use xlink:href="#DejaVuSans-30"/>
       <use x="63.623047" xlink:href="#DejaVuSans-2e"/>
       <use x="95.410156" xlink:href="#DejaVuSans-31"/>
       <use x="159.033203" xlink:href="#DejaVuSans-30"/>
      </g>
     </g>
    </g>
    <g id="ytick_4">
     <g id="line2d_21">
      <path clip-path="url(#p288f65b94c)" d="M 36.465625 207.048838 
L 594.465625 207.048838 
" style="fill:none;stroke:#b0b0b0;stroke-linecap:square;stroke-width:0.8;"/>
     </g>
     <g id="line2d_22">
      <g>
       <use style="stroke:#000000;stroke-width:0.8;" x="36.465625" xlink:href="#mc22cb1bb78" y="207.048838"/>
      </g>
     </g>
     <g id="text_11">
      <!-- 0.15 -->
      <g transform="translate(7.2 210.848057)scale(0.1 -0.1)">
       <use xlink:href="#DejaVuSans-30"/>
       <use x="63.623047" xlink:href="#DejaVuSans-2e"/>
       <use x="95.410156" xlink:href="#DejaVuSans-31"/>
       <use x="159.033203" xlink:href="#DejaVuSans-35"/>
      </g>
     </g>
    </g>
    <g id="ytick_5">
     <g id="line2d_23">
      <path clip-path="url(#p288f65b94c)" d="M 36.465625 169.886935 
L 594.465625 169.886935 
" style="fill:none;stroke:#b0b0b0;stroke-linecap:square;stroke-width:0.8;"/>
     </g>
     <g id="line2d_24">
      <g>
       <use style="stroke:#000000;stroke-width:0.8;" x="36.465625" xlink:href="#mc22cb1bb78" y="169.886935"/>
      </g>
     </g>
     <g id="text_12">
      <!-- 0.20 -->
      <g transform="translate(7.2 173.686154)scale(0.1 -0.1)">
       <use xlink:href="#DejaVuSans-30"/>
       <use x="63.623047" xlink:href="#DejaVuSans-2e"/>
       <use x="95.410156" xlink:href="#DejaVuSans-32"/>
       <use x="159.033203" xlink:href="#DejaVuSans-30"/>
      </g>
     </g>
    </g>
    <g id="ytick_6">
     <g id="line2d_25">
      <path clip-path="url(#p288f65b94c)" d="M 36.465625 132.725033 
L 594.465625 132.725033 
" style="fill:none;stroke:#b0b0b0;stroke-linecap:square;stroke-width:0.8;"/>
     </g>
     <g id="line2d_26">
      <g>
       <use style="stroke:#000000;stroke-width:0.8;" x="36.465625" xlink:href="#mc22cb1bb78" y="132.725033"/>
      </g>
     </g>
     <g id="text_13">
      <!-- 0.25 -->
      <g transform="translate(7.2 136.524252)scale(0.1 -0.1)">
       <use xlink:href="#DejaVuSans-30"/>
       <use x="63.623047" xlink:href="#DejaVuSans-2e"/>
       <use x="95.410156" xlink:href="#DejaVuSans-32"/>
       <use x="159.033203" xlink:href="#DejaVuSans-35"/>
      </g>
     </g>
    </g>
    <g id="ytick_7">
     <g id="line2d_27">
      <path clip-path="url(#p288f65b94c)" d="M 36.465625 95.563131 
L 594.465625 95.563131 
" style="fill:none;stroke:#b0b0b0;stroke-linecap:square;stroke-width:0.8;"/>
     </g>
     <g id="line2d_28">
      <g>
       <use style="stroke:#000000;stroke-width:0.8;" x="36.465625" xlink:href="#mc22cb1bb78" y="95.563131"/>
      </g>
     </g>
     <g id="text_14">
      <!-- 0.30 -->
      <g transform="translate(7.2 99.362349)scale(0.1 -0.1)">
       <defs>
        <path d="M 2597 2516 
Q 3050 2419 3304 2112 
Q 3559 1806 3559 1356 
Q 3559 666 3084 287 
Q 2609 -91 1734 -91 
Q 1441 -91 1130 -33 
Q 819 25 488 141 
L 488 750 
Q 750 597 1062 519 
Q 1375 441 1716 441 
Q 2309 441 2620 675 
Q 2931 909 2931 1356 
Q 2931 1769 2642 2001 
Q 2353 2234 1838 2234 
L 1294 2234 
L 1294 2753 
L 1863 2753 
Q 2328 2753 2575 2939 
Q 2822 3125 2822 3475 
Q 2822 3834 2567 4026 
Q 2313 4219 1838 4219 
Q 1578 4219 1281 4162 
Q 984 4106 628 3988 
L 628 4550 
Q 988 4650 1302 4700 
Q 1616 4750 1894 4750 
Q 2613 4750 3031 4423 
Q 3450 4097 3450 3541 
Q 3450 3153 3228 2886 
Q 3006 2619 2597 2516 
z
" id="DejaVuSans-33" transform="scale(0.015625)"/>
       </defs>
       <use xlink:href="#DejaVuSans-30"/>
       <use x="63.623047" xlink:href="#DejaVuSans-2e"/>
       <use x="95.410156" xlink:href="#DejaVuSans-33"/>
       <use x="159.033203" xlink:href="#DejaVuSans-30"/>
      </g>
     </g>
    </g>
    <g id="ytick_8">
     <g id="line2d_29">
      <path clip-path="url(#p288f65b94c)" d="M 36.465625 58.401228 
L 594.465625 58.401228 
" style="fill:none;stroke:#b0b0b0;stroke-linecap:square;stroke-width:0.8;"/>
     </g>
     <g id="line2d_30">
      <g>
       <use style="stroke:#000000;stroke-width:0.8;" x="36.465625" xlink:href="#mc22cb1bb78" y="58.401228"/>
      </g>
     </g>
     <g id="text_15">
      <!-- 0.35 -->
      <g transform="translate(7.2 62.200447)scale(0.1 -0.1)">
       <use xlink:href="#DejaVuSans-30"/>
       <use x="63.623047" xlink:href="#DejaVuSans-2e"/>
       <use x="95.410156" xlink:href="#DejaVuSans-33"/>
       <use x="159.033203" xlink:href="#DejaVuSans-35"/>
      </g>
     </g>
    </g>
    <g id="ytick_9">
     <g id="line2d_31">
      <path clip-path="url(#p288f65b94c)" d="M 36.465625 21.239326 
L 594.465625 21.239326 
" style="fill:none;stroke:#b0b0b0;stroke-linecap:square;stroke-width:0.8;"/>
     </g>
     <g id="line2d_32">
      <g>
       <use style="stroke:#000000;stroke-width:0.8;" x="36.465625" xlink:href="#mc22cb1bb78" y="21.239326"/>
      </g>
     </g>
     <g id="text_16">
      <!-- 0.40 -->
      <g transform="translate(7.2 25.038544)scale(0.1 -0.1)">
       <use xlink:href="#DejaVuSans-30"/>
       <use x="63.623047" xlink:href="#DejaVuSans-2e"/>
       <use x="95.410156" xlink:href="#DejaVuSans-34"/>
       <use x="159.033203" xlink:href="#DejaVuSans-30"/>
      </g>
     </g>
    </g>
   </g>
   <g id="line2d_33">
    <path clip-path="url(#p288f65b94c)" d="M 61.829261 318.534545 
L 171.333454 318.426815 
L 182.573948 318.181928 
L 189.825883 317.814451 
L 195.264837 317.336277 
L 199.978589 316.705073 
L 203.967157 315.951735 
L 207.59312 315.037641 
L 210.856487 313.980446 
L 213.757266 312.814206 
L 216.658037 311.395152 
L 219.196211 309.912887 
L 221.734394 308.173759 
L 224.272568 306.144691 
L 226.810743 303.790668 
L 228.986321 301.486636 
L 231.161907 298.893374 
L 233.337485 295.98696 
L 235.513063 292.743486 
L 237.688641 289.139454 
L 239.864227 285.15217 
L 242.402402 279.987561 
L 244.940576 274.241495 
L 247.478754 267.887652 
L 250.016933 260.905421 
L 252.555107 253.281166 
L 255.093282 245.009377 
L 257.994056 234.768494 
L 260.894831 223.71003 
L 264.158198 210.34575 
L 267.784166 194.460587 
L 271.77273 175.93679 
L 277.211679 149.470466 
L 287.364389 99.795829 
L 290.990354 83.230654 
L 293.891127 70.869325 
L 296.429303 60.877893 
L 298.967482 51.793622 
L 301.143061 44.822173 
L 302.956043 39.641635 
L 304.769027 35.072599 
L 306.582011 31.148089 
L 308.032397 28.491923 
L 309.482784 26.279205 
L 310.93317 24.520389 
L 312.020961 23.504314 
L 313.108751 22.751007 
L 314.196541 22.262551 
L 315.284331 22.040273 
L 316.372121 22.084751 
L 317.459911 22.395851 
L 318.547701 22.972753 
L 319.635491 23.81393 
L 320.723281 24.917055 
L 321.811071 26.279205 
L 323.261458 28.491923 
L 324.711844 31.148089 
L 326.16223 34.235165 
L 327.975214 38.677791 
L 329.788198 43.73885 
L 331.963777 50.577177 
L 334.139357 58.184293 
L 336.677533 67.92957 
L 339.578308 80.056373 
L 342.841677 94.717736 
L 346.830239 113.684571 
L 354.807369 153.049997 
L 360.608914 181.08212 
L 364.597478 199.331564 
L 368.223441 214.90442 
L 371.486813 227.950512 
L 374.387583 238.706249 
L 377.288358 248.63369 
L 380.189133 257.717024 
L 382.727307 264.973182 
L 385.265486 271.594181 
L 387.803664 277.597805 
L 390.341839 283.008079 
L 392.880013 287.854018 
L 395.418196 292.16848 
L 397.95637 295.98696 
L 400.494544 299.346681 
L 403.032718 302.285597 
L 405.570901 304.841639 
L 408.109076 307.052 
L 410.64725 308.952624 
L 413.185433 310.577739 
L 415.723607 311.959523 
L 418.624377 313.27903 
L 421.525157 314.360534 
L 424.788524 315.338136 
L 428.414487 316.180752 
L 432.403055 316.872785 
L 437.116807 317.450361 
L 442.555761 317.885934 
L 449.445099 318.206949 
L 459.235209 318.417912 
L 475.914657 318.517572 
L 539.006468 318.534544 
L 569.101989 318.534545 
L 569.101989 318.534545 
" style="fill:none;stroke:#1f77b4;stroke-linecap:square;stroke-width:1.5;"/>
   </g>
   <g id="line2d_34">
    <path clip-path="url(#p288f65b94c)" d="M 61.829261 318.21024 
L 77.783517 317.850868 
L 90.111792 317.35765 
L 100.264506 316.733296 
L 108.966835 315.980494 
L 116.581366 315.108459 
L 123.470688 314.10773 
L 129.997439 312.938105 
L 136.161585 311.602753 
L 141.963126 310.111948 
L 147.402079 308.482955 
L 152.478428 306.739485 
L 157.554776 304.761265 
L 162.268537 302.698034 
L 166.982298 300.402501 
L 171.69605 297.861759 
L 176.409802 295.064366 
L 181.123563 292.000778 
L 185.837315 288.663772 
L 190.551076 285.048854 
L 195.264837 281.154737 
L 199.978589 276.98369 
L 205.054946 272.189325 
L 210.131295 267.094442 
L 215.570248 261.324431 
L 221.371798 254.850708 
L 227.898532 247.235668 
L 235.875659 237.576533 
L 260.169639 207.890498 
L 265.971184 201.283397 
L 271.047537 195.82524 
L 275.761293 191.090087 
L 280.112454 187.051128 
L 284.101017 183.663628 
L 287.726985 180.870231 
L 291.35295 178.369836 
L 294.616319 176.384855 
L 297.879692 174.663385 
L 301.143061 173.215635 
L 304.043833 172.165571 
L 306.944608 171.343598 
L 309.845381 170.753649 
L 312.746154 170.398548 
L 315.646928 170.28 
L 318.547701 170.398548 
L 321.448474 170.753649 
L 324.349248 171.343598 
L 327.250021 172.165571 
L 330.150794 173.215635 
L 333.051567 174.48883 
L 336.314937 176.180365 
L 339.578308 178.136617 
L 342.841677 180.346112 
L 346.467643 183.082428 
L 350.09361 186.096066 
L 354.082172 189.706219 
L 358.433332 193.962938 
L 363.147093 198.902802 
L 368.223441 204.543688 
L 374.387583 211.742786 
L 382.364711 221.435579 
L 404.483112 248.52594 
L 411.372442 256.497561 
L 417.536589 263.281785 
L 422.975542 268.947452 
L 428.05189 273.936913 
L 433.128248 278.620403 
L 438.204596 282.986657 
L 442.918357 286.751967 
L 447.632118 290.238257 
L 452.34587 293.448339 
L 457.059631 296.38802 
L 461.773391 299.065653 
L 466.487135 301.491694 
L 471.200913 303.67834 
L 476.277262 305.78089 
L 481.35361 307.639391 
L 486.792546 309.381095 
L 492.231517 310.887512 
L 498.033058 312.261148 
L 504.197187 313.486854 
L 510.723938 314.556142 
L 517.975864 315.509637 
L 525.953001 316.322472 
L 534.655312 316.983807 
L 544.808027 317.528396 
L 557.136301 317.955005 
L 569.101989 318.204519 
L 569.101989 318.204519 
" style="fill:none;stroke:#ff7f0e;stroke-linecap:square;stroke-width:1.5;"/>
   </g>
   <g id="line2d_35">
    <path clip-path="url(#p288f65b94c)" d="M 61.829261 318.534545 
L 280.112454 318.426815 
L 291.35295 318.181928 
L 298.604885 317.814451 
L 304.043833 317.336277 
L 308.757591 316.705073 
L 312.746154 315.951735 
L 316.372121 315.037641 
L 319.635491 313.980446 
L 322.536264 312.814206 
L 325.437038 311.395152 
L 327.975214 309.912887 
L 330.513392 308.173759 
L 333.051567 306.144691 
L 335.589742 303.790668 
L 337.765325 301.486627 
L 339.940905 298.893374 
L 342.116485 295.98696 
L 344.292063 292.743486 
L 346.467643 289.139454 
L 348.643223 285.152187 
L 351.181401 279.987561 
L 353.719576 274.241495 
L 356.257754 267.887652 
L 358.795928 260.905438 
L 361.334107 253.281166 
L 363.872286 245.009366 
L 366.773056 234.768494 
L 369.673831 223.71003 
L 372.937198 210.34575 
L 376.563165 194.460587 
L 380.551734 175.936756 
L 385.990678 149.470466 
L 396.143388 99.795829 
L 399.769352 83.230654 
L 402.670122 70.869348 
L 405.208305 60.877893 
L 407.746479 51.793622 
L 409.922057 44.822173 
L 411.735039 39.641657 
L 413.548029 35.072599 
L 415.361011 31.148089 
L 416.811396 28.491923 
L 418.261781 26.279205 
L 419.712166 24.520389 
L 420.799955 23.504314 
L 421.887753 22.751007 
L 422.975542 22.262551 
L 424.063331 22.040273 
L 425.15112 22.084751 
L 426.238909 22.395851 
L 427.326698 22.972753 
L 428.414487 23.81393 
L 429.502276 24.917033 
L 430.590073 26.279205 
L 432.040459 28.491923 
L 433.490844 31.148089 
L 434.941229 34.235165 
L 436.754211 38.677791 
L 438.567192 43.73885 
L 440.742779 50.577177 
L 442.918357 58.184293 
L 445.456531 67.92957 
L 448.35731 80.056373 
L 451.620677 94.717736 
L 455.609237 113.684549 
L 463.586364 153.049986 
L 469.387906 181.082086 
L 473.376491 199.331619 
L 477.002454 214.904487 
L 480.265812 227.950512 
L 483.166583 238.706249 
L 486.067354 248.633668 
L 488.968141 257.717052 
L 491.506324 264.973226 
L 494.04449 271.594187 
L 496.582673 277.597827 
L 499.120838 283.008079 
L 501.659021 287.854035 
L 504.197187 292.168469 
L 506.73537 295.98696 
L 509.273553 299.346692 
L 511.811735 302.285615 
L 514.349901 304.841639 
L 516.888084 307.052008 
L 519.42625 308.952624 
L 521.964432 310.577739 
L 524.502598 311.959519 
L 527.403386 313.279032 
L 530.304156 314.360534 
L 533.567532 315.338139 
L 537.193495 316.180754 
L 541.182046 316.872783 
L 545.895824 317.450363 
L 551.33476 317.885934 
L 558.224099 318.206949 
L 568.014208 318.417912 
L 569.101989 318.431023 
L 569.101989 318.431023 
" style="fill:none;stroke:#2ca02c;stroke-linecap:square;stroke-width:1.5;"/>
   </g>
   <g id="patch_3">
    <path d="M 36.465625 333.36 
L 36.465625 7.2 
" style="fill:none;stroke:#000000;stroke-linecap:square;stroke-linejoin:miter;stroke-width:0.8;"/>
   </g>
   <g id="patch_4">
    <path d="M 594.465625 333.36 
L 594.465625 7.2 
" style="fill:none;stroke:#000000;stroke-linecap:square;stroke-linejoin:miter;stroke-width:0.8;"/>
   </g>
   <g id="patch_5">
    <path d="M 36.465625 333.36 
L 594.465625 333.36 
" style="fill:none;stroke:#000000;stroke-linecap:square;stroke-linejoin:miter;stroke-width:0.8;"/>
   </g>
   <g id="patch_6">
    <path d="M 36.465625 7.2 
L 594.465625 7.2 
" style="fill:none;stroke:#000000;stroke-linecap:square;stroke-linejoin:miter;stroke-width:0.8;"/>
   </g>
   <g id="legend_1">
    <g id="patch_7">
     <path d="M 458.615625 59.234375 
L 587.465625 59.234375 
Q 589.465625 59.234375 589.465625 57.234375 
L 589.465625 14.2 
Q 589.465625 12.2 587.465625 12.2 
L 458.615625 12.2 
Q 456.615625 12.2 456.615625 14.2 
L 456.615625 57.234375 
Q 456.615625 59.234375 458.615625 59.234375 
z
" style="fill:#ffffff;opacity:0.8;stroke:#cccccc;stroke-linejoin:miter;"/>
    </g>
    <g id="line2d_36">
     <path d="M 460.615625 20.298437 
L 480.615625 20.298437 
" style="fill:none;stroke:#1f77b4;stroke-linecap:square;stroke-width:1.5;"/>
    </g>
    <g id="line2d_37"/>
    <g id="text_17">
     <!-- mean 0, variance 1 -->
     <g transform="translate(488.615625 23.798437)scale(0.1 -0.1)">
      <defs>
       <path d="M 3328 2828 
Q 3544 3216 3844 3400 
Q 4144 3584 4550 3584 
Q 5097 3584 5394 3201 
Q 5691 2819 5691 2113 
L 5691 0 
L 5113 0 
L 5113 2094 
Q 5113 2597 4934 2840 
Q 4756 3084 4391 3084 
Q 3944 3084 3684 2787 
Q 3425 2491 3425 1978 
L 3425 0 
L 2847 0 
L 2847 2094 
Q 2847 2600 2669 2842 
Q 2491 3084 2119 3084 
Q 1678 3084 1418 2786 
Q 1159 2488 1159 1978 
L 1159 0 
L 581 0 
L 581 3500 
L 1159 3500 
L 1159 2956 
Q 1356 3278 1631 3431 
Q 1906 3584 2284 3584 
Q 2666 3584 2933 3390 
Q 3200 3197 3328 2828 
z
" id="DejaVuSans-6d" transform="scale(0.015625)"/>
       <path d="M 3597 1894 
L 3597 1613 
L 953 1613 
Q 991 1019 1311 708 
Q 1631 397 2203 397 
Q 2534 397 2845 478 
Q 3156 559 3463 722 
L 3463 178 
Q 3153 47 2828 -22 
Q 2503 -91 2169 -91 
Q 1331 -91 842 396 
Q 353 884 353 1716 
Q 353 2575 817 3079 
Q 1281 3584 2069 3584 
Q 2775 3584 3186 3129 
Q 3597 2675 3597 1894 
z
M 3022 2063 
Q 3016 2534 2758 2815 
Q 2500 3097 2075 3097 
Q 1594 3097 1305 2825 
Q 1016 2553 972 2059 
L 3022 2063 
z
" id="DejaVuSans-65" transform="scale(0.015625)"/>
       <path d="M 2194 1759 
Q 1497 1759 1228 1600 
Q 959 1441 959 1056 
Q 959 750 1161 570 
Q 1363 391 1709 391 
Q 2188 391 2477 730 
Q 2766 1069 2766 1631 
L 2766 1759 
L 2194 1759 
z
M 3341 1997 
L 3341 0 
L 2766 0 
L 2766 531 
Q 2569 213 2275 61 
Q 1981 -91 1556 -91 
Q 1019 -91 701 211 
Q 384 513 384 1019 
Q 384 1609 779 1909 
Q 1175 2209 1959 2209 
L 2766 2209 
L 2766 2266 
Q 2766 2663 2505 2880 
Q 2244 3097 1772 3097 
Q 1472 3097 1187 3025 
Q 903 2953 641 2809 
L 641 3341 
Q 956 3463 1253 3523 
Q 1550 3584 1831 3584 
Q 2591 3584 2966 3190 
Q 3341 2797 3341 1997 
z
" id="DejaVuSans-61" transform="scale(0.015625)"/>
       <path d="M 3513 2113 
L 3513 0 
L 2938 0 
L 2938 2094 
Q 2938 2591 2744 2837 
Q 2550 3084 2163 3084 
Q 1697 3084 1428 2787 
Q 1159 2491 1159 1978 
L 1159 0 
L 581 0 
L 581 3500 
L 1159 3500 
L 1159 2956 
Q 1366 3272 1645 3428 
Q 1925 3584 2291 3584 
Q 2894 3584 3203 3211 
Q 3513 2838 3513 2113 
z
" id="DejaVuSans-6e" transform="scale(0.015625)"/>
       <path id="DejaVuSans-20" transform="scale(0.015625)"/>
       <path d="M 750 794 
L 1409 794 
L 1409 256 
L 897 -744 
L 494 -744 
L 750 256 
L 750 794 
z
" id="DejaVuSans-2c" transform="scale(0.015625)"/>
       <path d="M 191 3500 
L 800 3500 
L 1894 563 
L 2988 3500 
L 3597 3500 
L 2284 0 
L 1503 0 
L 191 3500 
z
" id="DejaVuSans-76" transform="scale(0.015625)"/>
       <path d="M 2631 2963 
Q 2534 3019 2420 3045 
Q 2306 3072 2169 3072 
Q 1681 3072 1420 2755 
Q 1159 2438 1159 1844 
L 1159 0 
L 581 0 
L 581 3500 
L 1159 3500 
L 1159 2956 
Q 1341 3275 1631 3429 
Q 1922 3584 2338 3584 
Q 2397 3584 2469 3576 
Q 2541 3569 2628 3553 
L 2631 2963 
z
" id="DejaVuSans-72" transform="scale(0.015625)"/>
       <path d="M 603 3500 
L 1178 3500 
L 1178 0 
L 603 0 
L 603 3500 
z
M 603 4863 
L 1178 4863 
L 1178 4134 
L 603 4134 
L 603 4863 
z
" id="DejaVuSans-69" transform="scale(0.015625)"/>
       <path d="M 3122 3366 
L 3122 2828 
Q 2878 2963 2633 3030 
Q 2388 3097 2138 3097 
Q 1578 3097 1268 2742 
Q 959 2388 959 1747 
Q 959 1106 1268 751 
Q 1578 397 2138 397 
Q 2388 397 2633 464 
Q 2878 531 3122 666 
L 3122 134 
Q 2881 22 2623 -34 
Q 2366 -91 2075 -91 
Q 1284 -91 818 406 
Q 353 903 353 1747 
Q 353 2603 823 3093 
Q 1294 3584 2113 3584 
Q 2378 3584 2631 3529 
Q 2884 3475 3122 3366 
z
" id="DejaVuSans-63" transform="scale(0.015625)"/>
      </defs>
      <use xlink:href="#DejaVuSans-6d"/>
      <use x="97.412109" xlink:href="#DejaVuSans-65"/>
      <use x="158.935547" xlink:href="#DejaVuSans-61"/>
      <use x="220.214844" xlink:href="#DejaVuSans-6e"/>
      <use x="283.59375" xlink:href="#DejaVuSans-20"/>
      <use x="315.380859" xlink:href="#DejaVuSans-30"/>
      <use x="379.003906" xlink:href="#DejaVuSans-2c"/>
      <use x="410.791016" xlink:href="#DejaVuSans-20"/>
      <use x="442.578125" xlink:href="#DejaVuSans-76"/>
      <use x="501.757812" xlink:href="#DejaVuSans-61"/>
      <use x="563.037109" xlink:href="#DejaVuSans-72"/>
      <use x="604.150391" xlink:href="#DejaVuSans-69"/>
      <use x="631.933594" xlink:href="#DejaVuSans-61"/>
      <use x="693.212891" xlink:href="#DejaVuSans-6e"/>
      <use x="756.591797" xlink:href="#DejaVuSans-63"/>
      <use x="811.572266" xlink:href="#DejaVuSans-65"/>
      <use x="873.095703" xlink:href="#DejaVuSans-20"/>
      <use x="904.882812" xlink:href="#DejaVuSans-31"/>
     </g>
    </g>
    <g id="line2d_38">
     <path d="M 460.615625 34.976562 
L 480.615625 34.976562 
" style="fill:none;stroke:#ff7f0e;stroke-linecap:square;stroke-width:1.5;"/>
    </g>
    <g id="line2d_39"/>
    <g id="text_18">
     <!-- mean 0, variance 2 -->
     <g transform="translate(488.615625 38.476562)scale(0.1 -0.1)">
      <use xlink:href="#DejaVuSans-6d"/>
      <use x="97.412109" xlink:href="#DejaVuSans-65"/>
      <use x="158.935547" xlink:href="#DejaVuSans-61"/>
      <use x="220.214844" xlink:href="#DejaVuSans-6e"/>
      <use x="283.59375" xlink:href="#DejaVuSans-20"/>
      <use x="315.380859" xlink:href="#DejaVuSans-30"/>
      <use x="379.003906" xlink:href="#DejaVuSans-2c"/>
      <use x="410.791016" xlink:href="#DejaVuSans-20"/>
      <use x="442.578125" xlink:href="#DejaVuSans-76"/>
      <use x="501.757812" xlink:href="#DejaVuSans-61"/>
      <use x="563.037109" xlink:href="#DejaVuSans-72"/>
      <use x="604.150391" xlink:href="#DejaVuSans-69"/>
      <use x="631.933594" xlink:href="#DejaVuSans-61"/>
      <use x="693.212891" xlink:href="#DejaVuSans-6e"/>
      <use x="756.591797" xlink:href="#DejaVuSans-63"/>
      <use x="811.572266" xlink:href="#DejaVuSans-65"/>
      <use x="873.095703" xlink:href="#DejaVuSans-20"/>
      <use x="904.882812" xlink:href="#DejaVuSans-32"/>
     </g>
    </g>
    <g id="line2d_40">
     <path d="M 460.615625 49.654687 
L 480.615625 49.654687 
" style="fill:none;stroke:#2ca02c;stroke-linecap:square;stroke-width:1.5;"/>
    </g>
    <g id="line2d_41"/>
    <g id="text_19">
     <!-- mean 3, variance 1 -->
     <g transform="translate(488.615625 53.154687)scale(0.1 -0.1)">
      <use xlink:href="#DejaVuSans-6d"/>
      <use x="97.412109" xlink:href="#DejaVuSans-65"/>
      <use x="158.935547" xlink:href="#DejaVuSans-61"/>
      <use x="220.214844" xlink:href="#DejaVuSans-6e"/>
      <use x="283.59375" xlink:href="#DejaVuSans-20"/>
      <use x="315.380859" xlink:href="#DejaVuSans-33"/>
      <use x="379.003906" xlink:href="#DejaVuSans-2c"/>
      <use x="410.791016" xlink:href="#DejaVuSans-20"/>
      <use x="442.578125" xlink:href="#DejaVuSans-76"/>
      <use x="501.757812" xlink:href="#DejaVuSans-61"/>
      <use x="563.037109" xlink:href="#DejaVuSans-72"/>
      <use x="604.150391" xlink:href="#DejaVuSans-69"/>
      <use x="631.933594" xlink:href="#DejaVuSans-61"/>
      <use x="693.212891" xlink:href="#DejaVuSans-6e"/>
      <use x="756.591797" xlink:href="#DejaVuSans-63"/>
      <use x="811.572266" xlink:href="#DejaVuSans-65"/>
      <use x="873.095703" xlink:href="#DejaVuSans-20"/>
      <use x="904.882812" xlink:href="#DejaVuSans-31"/>
     </g>
    </g>
   </g>
  </g>
 </g>
 <defs>
  <clipPath id="p288f65b94c">
   <rect height="326.16" width="558" x="36.465625" y="7.2"/>
  </clipPath>
 </defs>
</svg>
